<svg xmlns="http://www.w3.org/2000/svg" xmlns:xlink="http://www.w3.org/1999/xlink" width="840" height="863.27"><rect width="840" height="863.27" rx="5" ry="5" class="a"/><svg y="0%" x="0%"><circle cx="20" cy="20" r="6" fill="#ff5f58"/><circle cx="40" cy="20" r="6" fill="#ffbd2e"/><circle cx="60" cy="20" r="6" fill="#18c132"/></svg><svg height="803.27" viewBox="0 0 80 80.327" width="800" x="15" xmlns="http://www.w3.org/2000/svg" xmlns:xlink="http://www.w3.org/1999/xlink" y="50"><style>@keyframes l{0%{transform:translateX(0)}4%{transform:translateX(-80px)}5%{transform:translateX(-320px)}12.6%{transform:translateX(-400px)}14.5%{transform:translateX(-480px)}15.7%{transform:translateX(-560px)}17.1%{transform:translateX(-640px)}17.8%{transform:translateX(-720px)}19.3%{transform:translateX(-800px)}20.3%{transform:translateX(-880px)}21.1%{transform:translateX(-960px)}21.9%{transform:translateX(-1040px)}22.7%{transform:translateX(-1120px)}24.2%{transform:translateX(-1200px)}25.3%{transform:translateX(-1280px)}26.3%{transform:translateX(-1360px)}27.1%{transform:translateX(-1440px)}27.6%{transform:translateX(-1520px)}29.2%{transform:translateX(-1600px)}29.7%{transform:translateX(-1680px)}31.4%{transform:translateX(-1840px)}31.5%{transform:translateX(-1920px)}34.1%{transform:translateX(-2160px)}34.9%{transform:translateX(-2400px)}44.4%{transform:translateX(-2480px)}46.2%{transform:translateX(-2560px)}47.2%{transform:translateX(-2640px)}48.1%{transform:translateX(-2720px)}48.8%{transform:translateX(-2800px)}52.3%{transform:translateX(-2880px)}53.6%{transform:translateX(-2960px)}54.4%{transform:translateX(-3040px)}55.2%{transform:translateX(-3120px)}56.3%{transform:translateX(-3200px)}58.2%{transform:translateX(-3280px)}58.9%{transform:translateX(-3360px)}60.1%{transform:translateX(-3440px)}60.7%{transform:translateX(-3520px)}61.5%{transform:translateX(-3600px)}62.6%{transform:translateX(-3680px)}63.6%{transform:translateX(-3760px)}64.8%{transform:translateX(-3840px)}66.2%{transform:translateX(-3920px)}67.1%{transform:translateX(-4000px)}68.6%{transform:translateX(-4080px)}74.7%{transform:translateX(-4320px)}77%{transform:translateX(-4480px)}77.1%{transform:translateX(-4720px)}77.8%{transform:translateX(-4960px)}95%{transform:translateX(-5040px)}96.8%{transform:translateX(-5120px)}97.7%{transform:translateX(-5200px)}98.8%{transform:translateX(-5280px)}to{transform:translateX(-5440px)}}.a{fill:#282d35}.f,.i,.j{fill:#b9c0cb;white-space:pre}.i,.j{fill:#dbab79}.j{fill:#66c2cd;text-decoration:underline}</style><g font-family="Monaco,Consolas,Menlo,'Bitstream Vera Sans Mono','Powerline Symbols',monospace" font-size="1.67"><defs><symbol id="1"><text y="1.67" class="f">~</text><text x="2.004" y="1.67" class="f">»</text></symbol><symbol id="2"><text y="1.67" class="f">~</text><text x="2.004" y="1.67" class="f">»</text><text x="4.008" y="1.67" class="f">c</text></symbol><symbol id="3"><text y="1.67" class="f">~</text><text x="2.004" y="1.67" class="f">»</text><text x="4.008" y="1.67" class="f">cu</text></symbol><symbol id="4"><text y="1.67" class="f">~</text><text x="2.004" y="1.67" class="f">»</text><text x="4.008" y="1.67" class="f">cur</text></symbol><symbol id="5"><text y="1.67" class="f">~</text><text x="2.004" y="1.67" class="f">»</text><text x="4.008" y="1.67" class="f">curl</text></symbol><symbol id="6"><text y="1.67" class="f">~</text><text x="2.004" y="1.67" class="f">»</text><text x="4.008" y="1.67" class="f">curl</text><text x="9.018" y="1.67" class="f">t</text></symbol><symbol id="7"><text y="1.67" class="f">~</text><text x="2.004" y="1.67" class="f">»</text><text x="4.008" y="1.67" class="f">curl</text><text x="9.018" y="1.67" class="f">tl</text></symbol><symbol id="8"><text y="1.67" class="f">~</text><text x="2.004" y="1.67" class="f">»</text><text x="4.008" y="1.67" class="f">curl</text><text x="9.018" y="1.67" class="f">tld</text></symbol><symbol id="9"><text y="1.67" class="f">~</text><text x="2.004" y="1.67" class="f">»</text><text x="4.008" y="1.67" class="f">curl</text><text x="9.018" y="1.67" class="f">tldr</text></symbol><symbol id="10"><text y="1.67" class="f">~</text><text x="2.004" y="1.67" class="f">»</text><text x="4.008" y="1.67" class="f">curl</text><text x="9.018" y="1.67" class="f">tldr.</text></symbol><symbol id="11"><text y="1.67" class="f">~</text><text x="2.004" y="1.67" class="f">»</text><text x="4.008" y="1.67" class="f">curl</text><text x="9.018" y="1.67" class="f">tldr.m</text></symbol><symbol id="12"><text y="1.67" class="f">~</text><text x="2.004" y="1.67" class="f">»</text><text x="4.008" y="1.67" class="f">curl</text><text x="9.018" y="1.67" class="f">tldr.mo</text></symbol><symbol id="13"><text y="1.67" class="f">~</text><text x="2.004" y="1.67" class="f">»</text><text x="4.008" y="1.67" class="f">curl</text><text x="9.018" y="1.67" class="f">tldr.mon</text></symbol><symbol id="14"><text y="1.67" class="f">~</text><text x="2.004" y="1.67" class="f">»</text><text x="4.008" y="1.67" class="f">curl</text><text x="9.018" y="1.67" class="f">tldr.mons</text></symbol><symbol id="15"><text y="1.67" class="f">~</text><text x="2.004" y="1.67" class="f">»</text><text x="4.008" y="1.67" class="f">curl</text><text x="9.018" y="1.67" class="f">tldr.monst</text></symbol><symbol id="16"><text y="1.67" class="f">~</text><text x="2.004" y="1.67" class="f">»</text><text x="4.008" y="1.67" class="f">curl</text><text x="9.018" y="1.67" class="f">tldr.monste</text></symbol><symbol id="17"><text y="1.67" class="f">~</text><text x="2.004" y="1.67" class="f">»</text><text x="4.008" y="1.67" class="f">curl</text><text x="9.018" y="1.67" class="f">tldr.monster</text></symbol><symbol id="18"><text y="1.67" class="f">(\__/)</text><text x="12.024" y="1.67" class="f">I&apos;m</text><text x="16.032" y="1.67" class="f">a</text><text x="18.036" y="1.67" class="f">friendly</text><text x="27.054" y="1.67" class="f">TL;DR</text><text x="33.066" y="1.67" class="f">monster!</text></symbol><symbol id="19"><text y="1.67" class="f">(</text><text x="2.004" y="1.67" class="f">&apos;_&apos;)</text><text x="12.024" y="1.67" class="f">Try</text><text x="16.032" y="1.67" class="f">something</text><text x="26.052" y="1.67" class="f">like:</text></symbol><symbol id="20"><text y="1.67" class="f">(&gt;</text><text x="5.01" y="1.67" class="f">)&gt;O</text></symbol><symbol id="21"><text y="1.67" class="f">U</text><text x="4.008" y="1.67" class="f">U</text><text x="18.036" y="1.67" class="f">curl</text><text x="23.046" y="1.67" class="f">tldr.monster/tar</text></symbol><symbol id="22"><text y="1.67" class="f">~</text><text x="2.004" y="1.67" class="f">»</text><text x="4.008" y="1.67" class="f">curl</text><text x="9.018" y="1.67" class="f">tldr.monster/tar</text></symbol><symbol id="23"><text y="1.67" style="white-space:pre" fill="#d290e4" font-weight="700" text-decoration="underline">tar</text></symbol><symbol id="24"><text y="1.67" class="f">Archiving</text><text x="10.02" y="1.67" class="f">utility.</text></symbol><symbol id="25"><text y="1.67" class="f">Often</text><text x="6.012" y="1.67" class="f">combined</text><text x="15.03" y="1.67" class="f">with</text><text x="20.04" y="1.67" class="f">a</text><text x="22.044" y="1.67" class="f">compression</text><text x="34.068" y="1.67" class="f">method,</text><text x="42.084" y="1.67" class="f">such</text><text x="47.094" y="1.67" class="f">as</text><text x="50.1" y="1.67" class="f">gzip</text><text x="55.11" y="1.67" class="f">or</text><text x="58.116" y="1.67" class="f">bzip.</text></symbol><symbol id="26"><text y="1.67" class="f">More</text><text x="5.01" y="1.67" class="f">information:</text><text x="18.036" y="1.67" style="white-space:pre" fill="#71bef2">https://www.gnu.org/software/tar</text><text x="50.1" y="1.67" class="f">.</text></symbol><symbol id="27"><text y="1.67" class="i">-</text><text x="2.004" y="1.67" class="i">Create</text><text x="9.018" y="1.67" class="i">an</text><text x="12.024" y="1.67" class="i">archive</text><text x="20.04" y="1.67" class="i">from</text><text x="25.05" y="1.67" class="i">files:</text></symbol><symbol id="28"><text x="2.004" y="1.67" class="f">tar</text><text x="6.012" y="1.67" class="f">cf</text><text x="9.018" y="1.67" class="j">target.tar</text><text x="20.04" y="1.67" class="j">file1</text><text x="26.052" y="1.67" class="j">file2</text><text x="32.064" y="1.67" class="j">file3</text></symbol><symbol id="29"><text y="1.67" class="i">-</text><text x="2.004" y="1.67" class="i">Create</text><text x="9.018" y="1.67" class="i">a</text><text x="11.022" y="1.67" class="i">gzipped</text><text x="19.038" y="1.67" class="i">archive:</text></symbol><symbol id="30"><text x="2.004" y="1.67" class="f">tar</text><text x="6.012" y="1.67" class="f">czf</text><text x="10.02" y="1.67" class="j">target.tar.gz</text><text x="24.048" y="1.67" class="j">file1</text><text x="30.06" y="1.67" class="j">file2</text><text x="36.072" y="1.67" class="j">file3</text></symbol><symbol id="31"><text y="1.67" class="i">-</text><text x="2.004" y="1.67" class="i">Create</text><text x="9.018" y="1.67" class="i">a</text><text x="11.022" y="1.67" class="i">gzipped</text><text x="19.038" y="1.67" class="i">archive</text><text x="27.054" y="1.67" class="i">from</text><text x="32.064" y="1.67" class="i">a</text><text x="34.068" y="1.67" class="i">directory</text><text x="44.088" y="1.67" class="i">using</text><text x="50.1" y="1.67" class="i">relative</text><text x="59.118" y="1.67" class="i">paths:</text></symbol><symbol id="32"><text x="2.004" y="1.67" class="f">tar</text><text x="6.012" y="1.67" class="f">czf</text><text x="10.02" y="1.67" class="j">target.tar.gz</text><text x="24.048" y="1.67" class="f">-C</text><text x="27.054" y="1.67" class="j">path/to/directory</text><text x="45.09" y="1.67" class="f">.</text></symbol><symbol id="33"><text y="1.67" class="i">-</text><text x="2.004" y="1.67" class="i">Extract</text><text x="10.02" y="1.67" class="i">a</text><text x="12.024" y="1.67" class="i">(compressed)</text><text x="25.05" y="1.67" class="i">archive</text><text x="33.066" y="1.67" class="i">into</text><text x="38.076" y="1.67" class="i">the</text><text x="42.084" y="1.67" class="i">current</text><text x="50.1" y="1.67" class="i">directory:</text></symbol><symbol id="34"><text x="2.004" y="1.67" class="f">tar</text><text x="6.012" y="1.67" class="f">xf</text><text x="9.018" y="1.67" class="j">source.tar[.gz|.bz2|.xz]</text></symbol><symbol id="35"><text y="1.67" class="i">-</text><text x="2.004" y="1.67" class="i">Extract</text><text x="10.02" y="1.67" class="i">an</text><text x="13.026" y="1.67" class="i">archive</text><text x="21.042" y="1.67" class="i">into</text><text x="26.052" y="1.67" class="i">a</text><text x="28.056" y="1.67" class="i">target</text><text x="35.07" y="1.67" class="i">directory:</text></symbol><symbol id="36"><text x="2.004" y="1.67" class="f">tar</text><text x="6.012" y="1.67" class="f">xf</text><text x="9.018" y="1.67" class="j">source.tar</text><text x="20.04" y="1.67" class="f">-C</text><text x="23.046" y="1.67" class="j">directory</text></symbol><symbol id="37"><text y="1.67" class="i">-</text><text x="2.004" y="1.67" class="i">Create</text><text x="9.018" y="1.67" class="i">a</text><text x="11.022" y="1.67" class="i">compressed</text><text x="22.044" y="1.67" class="i">archive,</text><text x="31.062" y="1.67" class="i">using</text><text x="37.074" y="1.67" class="i">archive</text><text x="45.09" y="1.67" class="i">suffix</text><text x="52.104" y="1.67" class="i">to</text><text x="55.11" y="1.67" class="i">determine</text><text x="65.13" y="1.67" class="i">the</text><text x="69.138" y="1.67" class="i">compression</text></symbol><symbol id="38"><text x="1.002" y="1.67" class="i">program:</text></symbol><symbol id="39"><text x="2.004" y="1.67" class="f">tar</text><text x="6.012" y="1.67" class="f">caf</text><text x="10.02" y="1.67" class="j">target.tar.xz</text><text x="24.048" y="1.67" class="j">file1</text><text x="30.06" y="1.67" class="j">file2</text><text x="36.072" y="1.67" class="j">file3</text></symbol><symbol id="40"><text y="1.67" class="i">-</text><text x="2.004" y="1.67" class="i">List</text><text x="7.014" y="1.67" class="i">the</text><text x="11.022" y="1.67" class="i">contents</text><text x="20.04" y="1.67" class="i">of</text><text x="23.046" y="1.67" class="i">a</text><text x="25.05" y="1.67" class="i">tar</text><text x="29.058" y="1.67" class="i">file:</text></symbol><symbol id="41"><text x="2.004" y="1.67" class="f">tar</text><text x="6.012" y="1.67" class="f">tvf</text><text x="10.02" y="1.67" class="j">source.tar</text></symbol><symbol id="42"><text y="1.67" class="i">-</text><text x="2.004" y="1.67" class="i">Extract</text><text x="10.02" y="1.67" class="i">files</text><text x="16.032" y="1.67" class="i">matching</text><text x="25.05" y="1.67" class="i">a</text><text x="27.054" y="1.67" class="i">pattern:</text></symbol><symbol id="43"><text x="2.004" y="1.67" class="f">tar</text><text x="6.012" y="1.67" class="f">xf</text><text x="9.018" y="1.67" class="j">source.tar</text><text x="20.04" y="1.67" class="f">--wildcards</text><text x="32.064" y="1.67" class="j">&quot;*.html&quot;</text></symbol><symbol id="44"><text y="1.67" class="i">-</text><text x="2.004" y="1.67" class="i">Extract</text><text x="10.02" y="1.67" class="i">a</text><text x="12.024" y="1.67" class="i">specific</text><text x="21.042" y="1.67" class="i">file</text><text x="26.052" y="1.67" class="i">without</text><text x="34.068" y="1.67" class="i">preserving</text><text x="45.09" y="1.67" class="i">the</text><text x="49.098" y="1.67" class="i">folder</text><text x="56.112" y="1.67" class="i">structure:</text></symbol><symbol id="45"><text x="2.004" y="1.67" class="f">tar</text><text x="6.012" y="1.67" class="f">xf</text><text x="9.018" y="1.67" class="j">source.tar</text><text x="20.04" y="1.67" class="j">source.tar/path/to/extract</text><text x="47.094" y="1.67" class="f">--strip-components=</text><text x="66.132" y="1.67" class="j">depth_to_strip</text></symbol><symbol id="46"><text y="1.67" class="f">~</text><text x="2.004" y="1.67" class="f">»</text><text x="4.008" y="1.67" class="f">exit</text></symbol><symbol id="a"><path fill="transparent" d="M0 0h80v37H0z"/></symbol></defs><path class="a" d="M0 0h80v80.327H0z"/><g style="animation-duration:9.212257s;animation-iteration-count:infinite;animation-name:l;animation-timing-function:steps(1,end)"><svg width="5520"><svg><use xlink:href="#a"/></svg><svg x="80"><use xlink:href="#a"/></svg><svg x="160"><use xlink:href="#a"/><use xlink:href="#1"/></svg><svg x="240"><use xlink:href="#a"/><use xlink:href="#1"/></svg><svg x="320"><use xlink:href="#a"/><use xlink:href="#1"/></svg><svg x="400"><use xlink:href="#a"/><use xlink:href="#2"/></svg><svg x="480"><use xlink:href="#a"/><use xlink:href="#3"/></svg><svg x="560"><use xlink:href="#a"/><use xlink:href="#4"/></svg><svg x="640"><use xlink:href="#a"/><use xlink:href="#5"/></svg><svg x="720"><use xlink:href="#a"/><use xlink:href="#5"/></svg><svg x="800"><use xlink:href="#a"/><use xlink:href="#6"/></svg><svg x="880"><use xlink:href="#a"/><use xlink:href="#7"/></svg><svg x="960"><use xlink:href="#a"/><use xlink:href="#8"/></svg><svg x="1040"><use xlink:href="#a"/><use xlink:href="#9"/></svg><svg x="1120"><use xlink:href="#a"/><use xlink:href="#10"/></svg><svg x="1200"><use xlink:href="#a"/><use xlink:href="#11"/></svg><svg x="1280"><use xlink:href="#a"/><use xlink:href="#12"/></svg><svg x="1360"><use xlink:href="#a"/><use xlink:href="#13"/></svg><svg x="1440"><use xlink:href="#a"/><use xlink:href="#14"/></svg><svg x="1520"><use xlink:href="#a"/><use xlink:href="#15"/></svg><svg x="1600"><use xlink:href="#a"/><use xlink:href="#16"/></svg><svg x="1680"><use xlink:href="#a"/><use xlink:href="#17"/></svg><svg x="1760"><use xlink:href="#a"/><use xlink:href="#17"/></svg><svg x="1840"><use xlink:href="#a"/><use xlink:href="#17"/></svg><svg x="1920"><use xlink:href="#a"/><use xlink:href="#17"/></svg><svg x="2000"><use xlink:href="#a"/><use xlink:href="#17"/><use xlink:href="#18" y="6.513"/><use xlink:href="#19" y="8.684"/><use xlink:href="#20" y="10.855"/><use xlink:href="#21" y="13.026"/></svg><svg x="2080"><use xlink:href="#a"/><use xlink:href="#17"/><use xlink:href="#18" y="6.513"/><use xlink:href="#19" y="8.684"/><use xlink:href="#20" y="10.855"/><use xlink:href="#21" y="13.026"/></svg><svg x="2160"><use xlink:href="#a"/><use xlink:href="#17"/><use xlink:href="#18" y="6.513"/><use xlink:href="#19" y="8.684"/><use xlink:href="#20" y="10.855"/><use xlink:href="#21" y="13.026"/></svg><svg x="2240"><use xlink:href="#a"/><use xlink:href="#17"/><use xlink:href="#18" y="6.513"/><use xlink:href="#19" y="8.684"/><use xlink:href="#20" y="10.855"/><use xlink:href="#21" y="13.026"/><use xlink:href="#1" y="17.368"/></svg><svg x="2320"><use xlink:href="#a"/><use xlink:href="#17"/><use xlink:href="#18" y="6.513"/><use xlink:href="#19" y="8.684"/><use xlink:href="#20" y="10.855"/><use xlink:href="#21" y="13.026"/><use xlink:href="#1" y="17.368"/></svg><svg x="2400"><use xlink:href="#a"/><use xlink:href="#17"/><use xlink:href="#18" y="6.513"/><use xlink:href="#19" y="8.684"/><use xlink:href="#20" y="10.855"/><use xlink:href="#21" y="13.026"/><use xlink:href="#1" y="17.368"/></svg><svg x="2480"><use xlink:href="#a"/><use xlink:href="#17"/><use xlink:href="#18" y="6.513"/><use xlink:href="#19" y="8.684"/><use xlink:href="#20" y="10.855"/><use xlink:href="#21" y="13.026"/><use xlink:href="#2" y="17.368"/></svg><svg x="2560"><use xlink:href="#a"/><use xlink:href="#17"/><use xlink:href="#18" y="6.513"/><use xlink:href="#19" y="8.684"/><use xlink:href="#20" y="10.855"/><use xlink:href="#21" y="13.026"/><use xlink:href="#3" y="17.368"/></svg><svg x="2640"><use xlink:href="#a"/><use xlink:href="#17"/><use xlink:href="#18" y="6.513"/><use xlink:href="#19" y="8.684"/><use xlink:href="#20" y="10.855"/><use xlink:href="#21" y="13.026"/><use xlink:href="#4" y="17.368"/></svg><svg x="2720"><use xlink:href="#a"/><use xlink:href="#17"/><use xlink:href="#18" y="6.513"/><use xlink:href="#19" y="8.684"/><use xlink:href="#20" y="10.855"/><use xlink:href="#21" y="13.026"/><use xlink:href="#5" y="17.368"/></svg><svg x="2800"><use xlink:href="#a"/><use xlink:href="#17"/><use xlink:href="#18" y="6.513"/><use xlink:href="#19" y="8.684"/><use xlink:href="#20" y="10.855"/><use xlink:href="#21" y="13.026"/><use xlink:href="#5" y="17.368"/></svg><svg x="2880"><use xlink:href="#a"/><use xlink:href="#17"/><use xlink:href="#18" y="6.513"/><use xlink:href="#19" y="8.684"/><use xlink:href="#20" y="10.855"/><use xlink:href="#21" y="13.026"/><use xlink:href="#6" y="17.368"/></svg><svg x="2960"><use xlink:href="#a"/><use xlink:href="#17"/><use xlink:href="#18" y="6.513"/><use xlink:href="#19" y="8.684"/><use xlink:href="#20" y="10.855"/><use xlink:href="#21" y="13.026"/><use xlink:href="#7" y="17.368"/></svg><svg x="3040"><use xlink:href="#a"/><use xlink:href="#17"/><use xlink:href="#18" y="6.513"/><use xlink:href="#19" y="8.684"/><use xlink:href="#20" y="10.855"/><use xlink:href="#21" y="13.026"/><use xlink:href="#8" y="17.368"/></svg><svg x="3120"><use xlink:href="#a"/><use xlink:href="#17"/><use xlink:href="#18" y="6.513"/><use xlink:href="#19" y="8.684"/><use xlink:href="#20" y="10.855"/><use xlink:href="#21" y="13.026"/><use xlink:href="#9" y="17.368"/></svg><svg x="3200"><use xlink:href="#a"/><use xlink:href="#17"/><use xlink:href="#18" y="6.513"/><use xlink:href="#19" y="8.684"/><use xlink:href="#20" y="10.855"/><use xlink:href="#21" y="13.026"/><use xlink:href="#10" y="17.368"/></svg><svg x="3280"><use xlink:href="#a"/><use xlink:href="#17"/><use xlink:href="#18" y="6.513"/><use xlink:href="#19" y="8.684"/><use xlink:href="#20" y="10.855"/><use xlink:href="#21" y="13.026"/><use xlink:href="#11" y="17.368"/></svg><svg x="3360"><use xlink:href="#a"/><use xlink:href="#17"/><use xlink:href="#18" y="6.513"/><use xlink:href="#19" y="8.684"/><use xlink:href="#20" y="10.855"/><use xlink:href="#21" y="13.026"/><use xlink:href="#12" y="17.368"/></svg><svg x="3440"><use xlink:href="#a"/><use xlink:href="#17"/><use xlink:href="#18" y="6.513"/><use xlink:href="#19" y="8.684"/><use xlink:href="#20" y="10.855"/><use xlink:href="#21" y="13.026"/><use xlink:href="#13" y="17.368"/></svg><svg x="3520"><use xlink:href="#a"/><use xlink:href="#17"/><use xlink:href="#18" y="6.513"/><use xlink:href="#19" y="8.684"/><use xlink:href="#20" y="10.855"/><use xlink:href="#21" y="13.026"/><use xlink:href="#14" y="17.368"/></svg><svg x="3600"><use xlink:href="#a"/><use xlink:href="#17"/><use xlink:href="#18" y="6.513"/><use xlink:href="#19" y="8.684"/><use xlink:href="#20" y="10.855"/><use xlink:href="#21" y="13.026"/><use xlink:href="#15" y="17.368"/></svg><svg x="3680"><use xlink:href="#a"/><use xlink:href="#17"/><use xlink:href="#18" y="6.513"/><use xlink:href="#19" y="8.684"/><use xlink:href="#20" y="10.855"/><use xlink:href="#21" y="13.026"/><use xlink:href="#16" y="17.368"/></svg><svg x="3760"><use xlink:href="#a"/><use xlink:href="#17"/><use xlink:href="#18" y="6.513"/><use xlink:href="#19" y="8.684"/><use xlink:href="#20" y="10.855"/><use xlink:href="#21" y="13.026"/><use xlink:href="#17" y="17.368"/></svg><svg x="3840"><use xlink:href="#a"/><use xlink:href="#17"/><use xlink:href="#18" y="6.513"/><use xlink:href="#19" y="8.684"/><use xlink:href="#20" y="10.855"/><use xlink:href="#21" y="13.026"/><text y="19.038" class="f">~</text><text x="2.004" y="19.038" class="f">»</text><text x="4.008" y="19.038" class="f">curl</text><text x="9.018" y="19.038" class="f">tldr.monster/</text></svg><svg x="3920"><use xlink:href="#a"/><use xlink:href="#17"/><use xlink:href="#18" y="6.513"/><use xlink:href="#19" y="8.684"/><use xlink:href="#20" y="10.855"/><use xlink:href="#21" y="13.026"/><text y="19.038" class="f">~</text><text x="2.004" y="19.038" class="f">»</text><text x="4.008" y="19.038" class="f">curl</text><text x="9.018" y="19.038" class="f">tldr.monster/t</text></svg><svg x="4000"><use xlink:href="#a"/><use xlink:href="#17"/><use xlink:href="#18" y="6.513"/><use xlink:href="#19" y="8.684"/><use xlink:href="#20" y="10.855"/><use xlink:href="#21" y="13.026"/><text y="19.038" class="f">~</text><text x="2.004" y="19.038" class="f">»</text><text x="4.008" y="19.038" class="f">curl</text><text x="9.018" y="19.038" class="f">tldr.monster/ta</text></svg><svg x="4080"><use xlink:href="#a"/><use xlink:href="#17"/><use xlink:href="#18" y="6.513"/><use xlink:href="#19" y="8.684"/><use xlink:href="#20" y="10.855"/><use xlink:href="#21" y="13.026"/><use xlink:href="#22" y="17.368"/></svg><svg x="4160"><use xlink:href="#a"/><use xlink:href="#17"/><use xlink:href="#18" y="6.513"/><use xlink:href="#19" y="8.684"/><use xlink:href="#20" y="10.855"/><use xlink:href="#21" y="13.026"/><use xlink:href="#22" y="17.368"/></svg><svg x="4240"><use xlink:href="#a"/><use xlink:href="#17"/><use xlink:href="#18" y="6.513"/><use xlink:href="#19" y="8.684"/><use xlink:href="#20" y="10.855"/><use xlink:href="#21" y="13.026"/><use xlink:href="#22" y="17.368"/></svg><svg x="4320"><use xlink:href="#a"/><use xlink:href="#17"/><use xlink:href="#18" y="6.513"/><use xlink:href="#19" y="8.684"/><use xlink:href="#20" y="10.855"/><use xlink:href="#21" y="13.026"/><use xlink:href="#22" y="17.368"/></svg><svg x="4400"><use xlink:href="#a"/><use xlink:href="#17"/><use xlink:href="#18" y="6.513"/><use xlink:href="#19" y="8.684"/><use xlink:href="#20" y="10.855"/><use xlink:href="#21" y="13.026"/><use xlink:href="#22" y="17.368"/><use xlink:href="#23" y="21.71"/><use xlink:href="#24" y="26.052"/><use xlink:href="#25" y="28.223"/><use xlink:href="#26" y="30.394"/><use xlink:href="#27" y="34.736"/><use xlink:href="#28" y="36.907"/><use xlink:href="#29" y="41.249"/><use xlink:href="#30" y="43.42"/><use xlink:href="#31" y="47.762"/><use xlink:href="#32" y="49.933"/><use xlink:href="#33" y="54.275"/><use xlink:href="#34" y="56.446"/><use xlink:href="#35" y="60.788"/></svg><svg x="4480"><use xlink:href="#a"/><use xlink:href="#22"/><use xlink:href="#23" y="4.342"/><use xlink:href="#24" y="8.684"/><use xlink:href="#25" y="10.855"/><use xlink:href="#26" y="13.026"/><use xlink:href="#27" y="17.368"/><use xlink:href="#28" y="19.539"/><use xlink:href="#29" y="23.881"/><use xlink:href="#30" y="26.052"/><use xlink:href="#31" y="30.394"/><use xlink:href="#32" y="32.565"/><use xlink:href="#33" y="36.907"/><use xlink:href="#34" y="39.078"/><use xlink:href="#35" y="43.42"/><use xlink:href="#36" y="45.591"/><use xlink:href="#37" y="49.933"/><use xlink:href="#38" y="52.104"/><use xlink:href="#39" y="54.275"/><use xlink:href="#40" y="58.617"/><use xlink:href="#41" y="60.788"/><use xlink:href="#42" y="65.13"/><use xlink:href="#43" y="67.301"/><use xlink:href="#44" y="71.643"/><use xlink:href="#45" y="73.814"/></svg><svg x="4560"><use xlink:href="#a"/><use xlink:href="#22"/><use xlink:href="#23" y="4.342"/><use xlink:href="#24" y="8.684"/><use xlink:href="#25" y="10.855"/><use xlink:href="#26" y="13.026"/><use xlink:href="#27" y="17.368"/><use xlink:href="#28" y="19.539"/><use xlink:href="#29" y="23.881"/><use xlink:href="#30" y="26.052"/><use xlink:href="#31" y="30.394"/><use xlink:href="#32" y="32.565"/><use xlink:href="#33" y="36.907"/><use xlink:href="#34" y="39.078"/><use xlink:href="#35" y="43.42"/><use xlink:href="#36" y="45.591"/><use xlink:href="#37" y="49.933"/><use xlink:href="#38" y="52.104"/><use xlink:href="#39" y="54.275"/><use xlink:href="#40" y="58.617"/><use xlink:href="#41" y="60.788"/><use xlink:href="#42" y="65.13"/><use xlink:href="#43" y="67.301"/><use xlink:href="#44" y="71.643"/><use xlink:href="#45" y="73.814"/></svg><svg x="4640"><use xlink:href="#a"/><use xlink:href="#22"/><use xlink:href="#23" y="4.342"/><use xlink:href="#24" y="8.684"/><use xlink:href="#25" y="10.855"/><use xlink:href="#26" y="13.026"/><use xlink:href="#27" y="17.368"/><use xlink:href="#28" y="19.539"/><use xlink:href="#29" y="23.881"/><use xlink:href="#30" y="26.052"/><use xlink:href="#31" y="30.394"/><use xlink:href="#32" y="32.565"/><use xlink:href="#33" y="36.907"/><use xlink:href="#34" y="39.078"/><use xlink:href="#35" y="43.42"/><use xlink:href="#36" y="45.591"/><use xlink:href="#37" y="49.933"/><use xlink:href="#38" y="52.104"/><use xlink:href="#39" y="54.275"/><use xlink:href="#40" y="58.617"/><use xlink:href="#41" y="60.788"/><use xlink:href="#42" y="65.13"/><use xlink:href="#43" y="67.301"/><use xlink:href="#44" y="71.643"/><use xlink:href="#45" y="73.814"/></svg><svg x="4720"><use xlink:href="#a"/><use xlink:href="#22"/><use xlink:href="#23" y="4.342"/><use xlink:href="#24" y="8.684"/><use xlink:href="#25" y="10.855"/><use xlink:href="#26" y="13.026"/><use xlink:href="#27" y="17.368"/><use xlink:href="#28" y="19.539"/><use xlink:href="#29" y="23.881"/><use xlink:href="#30" y="26.052"/><use xlink:href="#31" y="30.394"/><use xlink:href="#32" y="32.565"/><use xlink:href="#33" y="36.907"/><use xlink:href="#34" y="39.078"/><use xlink:href="#35" y="43.42"/><use xlink:href="#36" y="45.591"/><use xlink:href="#37" y="49.933"/><use xlink:href="#38" y="52.104"/><use xlink:href="#39" y="54.275"/><use xlink:href="#40" y="58.617"/><use xlink:href="#41" y="60.788"/><use xlink:href="#42" y="65.13"/><use xlink:href="#43" y="67.301"/><use xlink:href="#44" y="71.643"/><use xlink:href="#45" y="73.814"/></svg><svg x="4800"><use xlink:href="#a"/><use xlink:href="#22"/><use xlink:href="#23" y="4.342"/><use xlink:href="#24" y="8.684"/><use xlink:href="#25" y="10.855"/><use xlink:href="#26" y="13.026"/><use xlink:href="#27" y="17.368"/><use xlink:href="#28" y="19.539"/><use xlink:href="#29" y="23.881"/><use xlink:href="#30" y="26.052"/><use xlink:href="#31" y="30.394"/><use xlink:href="#32" y="32.565"/><use xlink:href="#33" y="36.907"/><use xlink:href="#34" y="39.078"/><use xlink:href="#35" y="43.42"/><use xlink:href="#36" y="45.591"/><use xlink:href="#37" y="49.933"/><use xlink:href="#38" y="52.104"/><use xlink:href="#39" y="54.275"/><use xlink:href="#40" y="58.617"/><use xlink:href="#41" y="60.788"/><use xlink:href="#42" y="65.13"/><use xlink:href="#43" y="67.301"/><use xlink:href="#44" y="71.643"/><use xlink:href="#45" y="73.814"/><use xlink:href="#1" y="78.156"/></svg><svg x="4880"><use xlink:href="#a"/><use xlink:href="#22"/><use xlink:href="#23" y="4.342"/><use xlink:href="#24" y="8.684"/><use xlink:href="#25" y="10.855"/><use xlink:href="#26" y="13.026"/><use xlink:href="#27" y="17.368"/><use xlink:href="#28" y="19.539"/><use xlink:href="#29" y="23.881"/><use xlink:href="#30" y="26.052"/><use xlink:href="#31" y="30.394"/><use xlink:href="#32" y="32.565"/><use xlink:href="#33" y="36.907"/><use xlink:href="#34" y="39.078"/><use xlink:href="#35" y="43.42"/><use xlink:href="#36" y="45.591"/><use xlink:href="#37" y="49.933"/><use xlink:href="#38" y="52.104"/><use xlink:href="#39" y="54.275"/><use xlink:href="#40" y="58.617"/><use xlink:href="#41" y="60.788"/><use xlink:href="#42" y="65.13"/><use xlink:href="#43" y="67.301"/><use xlink:href="#44" y="71.643"/><use xlink:href="#45" y="73.814"/><use xlink:href="#1" y="78.156"/></svg><svg x="4960"><use xlink:href="#a"/><use xlink:href="#22"/><use xlink:href="#23" y="4.342"/><use xlink:href="#24" y="8.684"/><use xlink:href="#25" y="10.855"/><use xlink:href="#26" y="13.026"/><use xlink:href="#27" y="17.368"/><use xlink:href="#28" y="19.539"/><use xlink:href="#29" y="23.881"/><use xlink:href="#30" y="26.052"/><use xlink:href="#31" y="30.394"/><use xlink:href="#32" y="32.565"/><use xlink:href="#33" y="36.907"/><use xlink:href="#34" y="39.078"/><use xlink:href="#35" y="43.42"/><use xlink:href="#36" y="45.591"/><use xlink:href="#37" y="49.933"/><use xlink:href="#38" y="52.104"/><use xlink:href="#39" y="54.275"/><use xlink:href="#40" y="58.617"/><use xlink:href="#41" y="60.788"/><use xlink:href="#42" y="65.13"/><use xlink:href="#43" y="67.301"/><use xlink:href="#44" y="71.643"/><use xlink:href="#45" y="73.814"/><use xlink:href="#1" y="78.156"/></svg><svg x="5040"><use xlink:href="#a"/><use xlink:href="#22"/><use xlink:href="#23" y="4.342"/><use xlink:href="#24" y="8.684"/><use xlink:href="#25" y="10.855"/><use xlink:href="#26" y="13.026"/><use xlink:href="#27" y="17.368"/><use xlink:href="#28" y="19.539"/><use xlink:href="#29" y="23.881"/><use xlink:href="#30" y="26.052"/><use xlink:href="#31" y="30.394"/><use xlink:href="#32" y="32.565"/><use xlink:href="#33" y="36.907"/><use xlink:href="#34" y="39.078"/><use xlink:href="#35" y="43.42"/><use xlink:href="#36" y="45.591"/><use xlink:href="#37" y="49.933"/><use xlink:href="#38" y="52.104"/><use xlink:href="#39" y="54.275"/><use xlink:href="#40" y="58.617"/><use xlink:href="#41" y="60.788"/><use xlink:href="#42" y="65.13"/><use xlink:href="#43" y="67.301"/><use xlink:href="#44" y="71.643"/><use xlink:href="#45" y="73.814"/><text y="79.826" class="f">~</text><text x="2.004" y="79.826" class="f">»</text><text x="4.008" y="79.826" class="f">e</text></svg><svg x="5120"><use xlink:href="#a"/><use xlink:href="#22"/><use xlink:href="#23" y="4.342"/><use xlink:href="#24" y="8.684"/><use xlink:href="#25" y="10.855"/><use xlink:href="#26" y="13.026"/><use xlink:href="#27" y="17.368"/><use xlink:href="#28" y="19.539"/><use xlink:href="#29" y="23.881"/><use xlink:href="#30" y="26.052"/><use xlink:href="#31" y="30.394"/><use xlink:href="#32" y="32.565"/><use xlink:href="#33" y="36.907"/><use xlink:href="#34" y="39.078"/><use xlink:href="#35" y="43.42"/><use xlink:href="#36" y="45.591"/><use xlink:href="#37" y="49.933"/><use xlink:href="#38" y="52.104"/><use xlink:href="#39" y="54.275"/><use xlink:href="#40" y="58.617"/><use xlink:href="#41" y="60.788"/><use xlink:href="#42" y="65.13"/><use xlink:href="#43" y="67.301"/><use xlink:href="#44" y="71.643"/><use xlink:href="#45" y="73.814"/><text y="79.826" class="f">~</text><text x="2.004" y="79.826" class="f">»</text><text x="4.008" y="79.826" class="f">ex</text></svg><svg x="5200"><use xlink:href="#a"/><use xlink:href="#22"/><use xlink:href="#23" y="4.342"/><use xlink:href="#24" y="8.684"/><use xlink:href="#25" y="10.855"/><use xlink:href="#26" y="13.026"/><use xlink:href="#27" y="17.368"/><use xlink:href="#28" y="19.539"/><use xlink:href="#29" y="23.881"/><use xlink:href="#30" y="26.052"/><use xlink:href="#31" y="30.394"/><use xlink:href="#32" y="32.565"/><use xlink:href="#33" y="36.907"/><use xlink:href="#34" y="39.078"/><use xlink:href="#35" y="43.42"/><use xlink:href="#36" y="45.591"/><use xlink:href="#37" y="49.933"/><use xlink:href="#38" y="52.104"/><use xlink:href="#39" y="54.275"/><use xlink:href="#40" y="58.617"/><use xlink:href="#41" y="60.788"/><use xlink:href="#42" y="65.13"/><use xlink:href="#43" y="67.301"/><use xlink:href="#44" y="71.643"/><use xlink:href="#45" y="73.814"/><text y="79.826" class="f">~</text><text x="2.004" y="79.826" class="f">»</text><text x="4.008" y="79.826" class="f">exi</text></svg><svg x="5280"><use xlink:href="#a"/><use xlink:href="#22"/><use xlink:href="#23" y="4.342"/><use xlink:href="#24" y="8.684"/><use xlink:href="#25" y="10.855"/><use xlink:href="#26" y="13.026"/><use xlink:href="#27" y="17.368"/><use xlink:href="#28" y="19.539"/><use xlink:href="#29" y="23.881"/><use xlink:href="#30" y="26.052"/><use xlink:href="#31" y="30.394"/><use xlink:href="#32" y="32.565"/><use xlink:href="#33" y="36.907"/><use xlink:href="#34" y="39.078"/><use xlink:href="#35" y="43.42"/><use xlink:href="#36" y="45.591"/><use xlink:href="#37" y="49.933"/><use xlink:href="#38" y="52.104"/><use xlink:href="#39" y="54.275"/><use xlink:href="#40" y="58.617"/><use xlink:href="#41" y="60.788"/><use xlink:href="#42" y="65.13"/><use xlink:href="#43" y="67.301"/><use xlink:href="#44" y="71.643"/><use xlink:href="#45" y="73.814"/><use xlink:href="#46" y="78.156"/></svg><svg x="5360"><use xlink:href="#a"/><use xlink:href="#23" y="2.171"/><use xlink:href="#24" y="6.513"/><use xlink:href="#25" y="8.684"/><use xlink:href="#26" y="10.855"/><use xlink:href="#27" y="15.197"/><use xlink:href="#28" y="17.368"/><use xlink:href="#29" y="21.71"/><use xlink:href="#30" y="23.881"/><use xlink:href="#31" y="28.223"/><use xlink:href="#32" y="30.394"/><use xlink:href="#33" y="34.736"/><use xlink:href="#34" y="36.907"/><use xlink:href="#35" y="41.249"/><use xlink:href="#36" y="43.42"/><use xlink:href="#37" y="47.762"/><use xlink:href="#38" y="49.933"/><use xlink:href="#39" y="52.104"/><use xlink:href="#40" y="56.446"/><use xlink:href="#41" y="58.617"/><use xlink:href="#42" y="62.959"/><use xlink:href="#43" y="65.13"/><use xlink:href="#44" y="69.472"/><use xlink:href="#45" y="71.643"/><use xlink:href="#46" y="75.985"/></svg><svg x="5440"><use xlink:href="#a"/><use xlink:href="#23" y="2.171"/><use xlink:href="#24" y="6.513"/><use xlink:href="#25" y="8.684"/><use xlink:href="#26" y="10.855"/><use xlink:href="#27" y="15.197"/><use xlink:href="#28" y="17.368"/><use xlink:href="#29" y="21.71"/><use xlink:href="#30" y="23.881"/><use xlink:href="#31" y="28.223"/><use xlink:href="#32" y="30.394"/><use xlink:href="#33" y="34.736"/><use xlink:href="#34" y="36.907"/><use xlink:href="#35" y="41.249"/><use xlink:href="#36" y="43.42"/><use xlink:href="#37" y="47.762"/><use xlink:href="#38" y="49.933"/><use xlink:href="#39" y="52.104"/><use xlink:href="#40" y="56.446"/><use xlink:href="#41" y="58.617"/><use xlink:href="#42" y="62.959"/><use xlink:href="#43" y="65.13"/><use xlink:href="#44" y="69.472"/><use xlink:href="#45" y="71.643"/><use xlink:href="#46" y="75.985"/></svg></svg></g></g></svg></svg>